# xmcd
#
# Track frame offsets: 
#        182
#        16402
#        36752
#        50375
#        69827
#        82647
#        103210
#        117557
#        138742
#        150655
#
# Disc length: 2274 seconds
#
# Revision: 1
# Processed by: cddbd v1.5.2PL0 Copyright (c) Steve Scherf et al.
# Submitted via: ExactAudioCopy v0.99pb4
#
DISCID=7c08e00a
DTITLE=Johnny Winter - Saints And Sinners
DYEAR=1974
DGENRE=Rock
TTITLE0=Stone County
TTITLE1=Blinded By Love
TTITLE2=Thirty Days
TTITLE3=Stray Cat Blues
TTITLE4=Bad Luck Situation
TTITLE5=Rollin' Cross The Country
TTITLE6=Riot In Cell Block #9
TTITLE7=Hurtin' So Bad
TTITLE8=Bony Maronie
TTITLE9=Feedback On Highway 101
EXTD=
EXTT0=
EXTT1=
EXTT2=
EXTT3=
EXTT4=
EXTT5=
EXTT6=
EXTT7=
EXTT8=
EXTT9=
PLAYORDER=
